# xmcd
#
# Track frame offsets:
#	150
#	19132
#	36690
#	53691
#	71132
#	85220
#	101853
#	120042
#	136324
#	153872
#	169781
#	185910
#
# Disc length: 2696 seconds
#
# Revision: 0
# Processed by: cddbd v1.5.1PL2 Copyright (c) Steve Scherf et al.
# Submitted via: EasyCDDAExtractor 10.0.1.1
#
DISCID=a30a860c
DTITLE=Matti ja Teppo - Pöytä täyteen
DYEAR=2006
DGENRE=Alternative
TTITLE0=Taivas aukeaa
TTITLE1=Pientä pientä toivoo
TTITLE2=Pöytä täyteen!
TTITLE3=Ei ne päivät palaa
TTITLE4=Vieläkö
TTITLE5=Hitaasti syttyvä mies
TTITLE6=Älä luovuta
TTITLE7=Tuoksusi ihollain
TTITLE8=Tänä yönä
TTITLE9=Tää me osataan
TTITLE10=Ihana päivä
TTITLE11=Minun enkelini
EXTD=
EXTT0=
EXTT1=
EXTT2=
EXTT3=
EXTT4=
EXTT5=
EXTT6=
EXTT7=
EXTT8=
EXTT9=
EXTT10=
EXTT11=
PLAYORDER=
